<svg width="130" height="254" viewBox="0 0 130 254" fill="none" xmlns="http://www.w3.org/2000/svg">
<g clip-path="url(#clip0_2401_113)">
<g style="mix-blend-mode:multiply" opacity="0.3">
<path d="M63.9022 253.151C88.0323 253.151 107.594 249.07 107.594 244.037C107.594 239.003 88.0323 234.922 63.9022 234.922C39.7722 234.922 20.2109 239.003 20.2109 244.037C20.2109 249.07 39.7722 253.151 63.9022 253.151Z" fill="#BDCFD5"/>
</g>
<path d="M66.6302 143.338C69.6118 136.308 74.9822 130.616 80.3017 125.127C85.2147 120.044 90.3648 114.962 96.9549 112.353C103.545 109.744 111.948 110.659 116.369 116.114C120.537 121.298 119.978 128.65 120.825 135.241C121.813 142.819 124.886 149.974 129.702 155.909C121.232 155.909 114.608 148.116 111.592 140.154C110.578 136.697 109.174 133.366 107.408 130.226C105.409 127.244 101.953 124.873 98.3949 125.432C96.4765 125.925 94.6897 126.833 93.1601 128.091L79.2514 137.629C76.5069 139.527 73.593 141.61 72.4749 144.745C71.816 147.32 71.7235 150.008 72.2038 152.622C72.9822 160.879 72.2823 169.209 70.137 177.221C58.8034 172.393 63.2419 151.657 66.6302 143.338Z" fill="#8A9636"/>
<path d="M63.3611 141.983C65.6989 133.834 71.0693 126.973 75.762 119.959C88.3946 100.886 96.5065 79.1808 99.4797 56.4976C88.0444 74.9634 74.7625 92.5145 65.9531 112.336C57.1437 132.157 53.1625 155.468 61.2434 175.645C60.21 166.243 60.7521 151.08 63.3611 141.983Z" fill="#8A9636"/>
<path d="M54.3134 127.058C43.6743 108.304 31.2564 90.1597 28.0884 68.7969C27.4616 68.2717 26.6484 69.2035 26.3943 69.9658C22.2758 81.8168 22.6009 94.7601 27.3091 106.389C30.9684 115.368 37.1181 123.127 43.759 130.192C45.7846 132.156 47.5806 134.344 49.1124 136.714C52.5007 142.542 56.6174 148.861 56.9731 155.603C57.312 161.872 62.8178 171.24 67.5444 175.611C67.1717 165.921 64.1392 144.405 54.3134 127.058Z" fill="#8A9636"/>
<path d="M63.7841 173.968C71.9667 145.676 61.3615 118.062 58.1597 89.8719C56.4655 74.6249 61.0058 59.9369 59.7183 44.7915C58.6052 29.8124 55.9194 14.992 51.7051 0.574995C51.434 -0.272064 50.011 -0.170409 50.1126 0.795238C50.8411 15.5849 56.042 29.9849 57.0246 44.8423C57.9733 59.3609 52.6368 73.6423 53.2637 88.4658C54.4495 116.808 66.3253 144.609 60.4806 173.172C60.3593 173.621 60.4214 174.1 60.6534 174.504C60.8853 174.907 61.268 175.202 61.7173 175.323C62.1666 175.445 62.6457 175.382 63.0492 175.15C63.4527 174.919 63.7475 174.536 63.8688 174.087L63.7841 173.968Z" fill="#8A9636"/>
<path d="M66.6292 63.7145C69.6278 60.4787 73.1685 57.7342 75.9468 54.2782C78.405 50.9416 80.4899 47.3455 82.1642 43.5545L90.6348 26.2236C92.9888 33.2759 93.2696 40.8556 91.4438 48.0627C89.618 55.2698 85.7623 61.8015 80.3346 66.8825C77.4885 69.4575 74.2866 71.5921 71.3727 74.0994C62.7158 81.5705 57.8198 91.8707 55.7699 102.899C55.4141 88.8552 56.7864 74.3874 66.6292 63.7145Z" fill="#8A9636"/>
<path d="M54.5337 86.8228C36.6946 68.6788 43.0983 48.1969 27.1059 28.6976C15.2471 19.5663 10.9948 13.5522 0 14.7211C10.9184 23.8622 20.1549 34.8416 27.2922 47.1635C28.651 49.2842 29.6525 51.6135 30.2569 54.0585C30.5655 56.695 30.6618 59.352 30.5449 62.0039C31.1548 81.5541 50.4508 95.6999 56.1939 113.725C62.2588 106.203 60.4292 92.82 54.5337 86.8228Z" fill="#8A9636"/>
<path d="M66.0713 29.5955C67.3525 25.4772 69.3606 21.6217 72.0007 18.2111C76.5917 12.9085 83.8595 10.4012 88.027 4.75977C83.995 25.6821 64.5974 40.3362 57.6684 60.5132C56.1776 50.8736 62.8016 38.3033 66.0713 29.5955Z" fill="#8A9636"/>
<path d="M75.608 155.638H50.8739C44.5836 155.638 38.5509 158.136 34.103 162.584C29.6551 167.032 27.1563 173.065 27.1562 179.355L39.913 240.462C40.1248 241.552 40.7085 242.535 41.5644 243.242C42.4203 243.95 43.4952 244.339 44.6057 244.342H81.8762C82.9772 244.342 84.0446 243.963 84.8991 243.269C85.7537 242.575 86.3433 241.607 86.5689 240.53L99.3257 179.423C99.3346 176.303 98.7277 173.211 97.5397 170.326C96.3518 167.441 94.6062 164.818 92.4029 162.608C90.1996 160.399 87.582 158.646 84.7 157.45C81.8181 156.253 78.7284 155.638 75.608 155.638Z" fill="#7B6357"/>
<path d="M41.2179 164.582C56.1261 164.938 71.712 166.039 86.5355 164.582C86.6838 164.582 86.826 164.524 86.9308 164.419C87.0357 164.314 87.0946 164.172 87.0946 164.023C87.0946 163.875 87.0357 163.733 86.9308 163.628C86.826 163.523 86.6838 163.464 86.5355 163.464C71.695 162.075 56.0414 163.176 41.2179 163.464C41.0876 163.464 40.9626 163.516 40.8705 163.608C40.7783 163.7 40.7266 163.825 40.7266 163.956C40.7266 164.086 40.7783 164.211 40.8705 164.303C40.9626 164.395 41.0876 164.447 41.2179 164.447V164.582Z" fill="#6D564D"/>
<path d="M36.5576 189.079C54.4983 189.639 72.8456 190.503 90.7694 189.198C90.9042 189.198 91.0334 189.145 91.1288 189.049C91.2241 188.954 91.2776 188.825 91.2776 188.69C91.2776 188.555 91.2241 188.426 91.1288 188.33C91.0334 188.235 90.9042 188.182 90.7694 188.182C72.8456 186.877 54.4983 187.741 36.5576 188.3C36.4543 188.3 36.3552 188.341 36.2821 188.414C36.209 188.487 36.168 188.586 36.168 188.69C36.168 188.793 36.209 188.892 36.2821 188.965C36.3552 189.038 36.4543 189.079 36.5576 189.079Z" fill="#6D564D"/>
<path d="M42.9131 201.803C55.3988 202.124 68.1385 202.751 80.6072 201.803C80.7375 201.803 80.8625 201.751 80.9546 201.659C81.0468 201.566 81.0985 201.441 81.0985 201.311C81.0985 201.181 81.0468 201.056 80.9546 200.964C80.8625 200.872 80.7375 200.82 80.6072 200.82C68.1385 199.922 55.4157 200.549 42.9131 200.82C42.7963 200.82 42.6843 200.866 42.6017 200.949C42.5191 201.032 42.4727 201.144 42.4727 201.26C42.4727 201.377 42.5191 201.489 42.6017 201.572C42.6843 201.654 42.7963 201.701 42.9131 201.701V201.803Z" fill="#6D564D"/>
<path d="M43.7595 214.119C56.7325 215.008 69.7512 215.008 82.7242 214.119C82.8276 214.119 82.9267 214.078 82.9997 214.005C83.0728 213.932 83.1139 213.832 83.1139 213.729C83.1139 213.626 83.0728 213.527 82.9997 213.454C82.9267 213.38 82.8276 213.339 82.7242 213.339C69.7512 212.45 56.7325 212.45 43.7595 213.339C43.6337 213.339 43.513 213.389 43.4241 213.478C43.3351 213.567 43.2852 213.688 43.2852 213.814C43.2852 213.94 43.3351 214.06 43.4241 214.149C43.513 214.238 43.6337 214.288 43.7595 214.288V214.119Z" fill="#6D564D"/>
<path d="M45.8772 224.961C58.1464 225.695 70.4456 225.785 82.7243 225.232C82.877 225.232 83.0235 225.171 83.1316 225.063C83.2396 224.955 83.3003 224.809 83.3003 224.656C83.3003 224.503 83.2396 224.357 83.1316 224.249C83.0235 224.141 82.877 224.08 82.7243 224.08C70.4456 223.526 58.1464 223.617 45.8772 224.351C45.7963 224.351 45.7188 224.383 45.6616 224.44C45.6044 224.497 45.5723 224.575 45.5723 224.656C45.5723 224.737 45.6044 224.814 45.6616 224.872C45.7188 224.929 45.7963 224.961 45.8772 224.961Z" fill="#6D564D"/>
<path d="M45.4547 236.04C55.8737 237.125 66.377 237.125 76.7959 236.04C76.9172 236.04 77.0336 235.992 77.1194 235.907C77.2051 235.821 77.2533 235.704 77.2533 235.583C77.2533 235.462 77.2051 235.345 77.1194 235.26C77.0336 235.174 76.9172 235.126 76.7959 235.126C66.377 234.041 55.8737 234.041 45.4547 235.126C45.3559 235.126 45.2611 235.165 45.1912 235.235C45.1213 235.305 45.082 235.4 45.082 235.498C45.082 235.597 45.1213 235.692 45.1912 235.762C45.2611 235.832 45.3559 235.871 45.4547 235.871V236.04Z" fill="#6D564D"/>
<path d="M35.2886 176.17C44.5385 176.611 53.7715 176.645 63.0383 176.662C72.3051 176.679 81.6736 177.576 90.771 176.458C90.9058 176.458 91.0351 176.405 91.1304 176.309C91.2257 176.214 91.2792 176.085 91.2792 175.95C91.2792 175.815 91.2257 175.686 91.1304 175.591C91.0351 175.495 90.9058 175.442 90.771 175.442C81.7244 174.324 72.1357 175.205 63.0383 175.239C53.9409 175.272 44.5385 175.239 35.2886 175.747C35.2426 175.76 35.2021 175.788 35.1733 175.826C35.1445 175.864 35.1289 175.911 35.1289 175.959C35.1289 176.006 35.1445 176.053 35.1733 176.091C35.2021 176.129 35.2426 176.157 35.2886 176.17Z" fill="#6D564D"/>
</g>
<defs>
<clipPath id="clip0_2401_113">
<rect width="129.7" height="253.17" fill="white"/>
</clipPath>
</defs>
</svg>
