<svg width="67" height="219" viewBox="0 0 67 219" fill="none" xmlns="http://www.w3.org/2000/svg">
<g clip-path="url(#clip0_2401_162)">
<g style="mix-blend-mode:multiply" opacity="0.3">
<path d="M41.9424 218.548C55.5278 218.548 66.5409 215.734 66.5409 212.263C66.5409 208.792 55.5278 205.978 41.9424 205.978C28.3569 205.978 17.3438 208.792 17.3438 212.263C17.3438 215.734 28.3569 218.548 41.9424 218.548Z" fill="#BDCFD5"/>
</g>
<path d="M38.7044 45.189C41.9571 36.1255 47.175 27.9598 52.4775 19.8789C52.4775 34.6008 52.4775 51.8131 50.7834 60.6733C48.3947 73.0573 44.6338 88.1688 37.0102 98.3165C29.5053 85.3735 33.8592 58.5895 38.7044 45.189Z" fill="#8A9636"/>
<path d="M40.5533 91.0831C39.9434 84.51 39.3166 77.9368 38.317 71.4145C34.4375 45.8841 28.5927 27.0794 14.2097 5.63184C12.8205 20.7434 13.2441 25.1311 14.3622 33.8558C17.1914 56.0488 16.4968 72.5156 33.8276 86.6615C35.696 87.9015 37.2737 89.5313 38.4525 91.4389C40.9259 96.5212 38.8761 103.772 39.757 109.092C43.9076 105.466 41.1632 96.5551 40.5533 91.0831Z" fill="#66741F"/>
<path d="M37.7754 12.2389C34.1331 30.6878 32.1678 51.2036 35.6069 69.7542C39.4017 90.0836 46.3307 108.719 43.7387 129.777C43.5016 131.674 46.6357 132.064 47.127 130.234C51.1929 112.531 44.9246 94.4375 40.8587 77.3439C38.162 66.982 37.0201 56.2768 37.4705 45.5792C38.1143 34.5505 39.9947 23.5556 39.927 12.51C39.927 11.358 38.0973 11.0361 37.8601 12.2389H37.7754Z" fill="#66741F"/>
<path d="M38.8411 83.6117C29.5234 68.3647 2.43447 28.5698 0.791174 29.0781C-1.44506 47.5609 0.791174 57.5054 10.9559 72.7016C13.9545 77.191 29.0321 87.5421 32.6575 102.061C33.9789 107.262 36.6387 131.267 38.0787 136.502C46.2613 122.458 44.6011 93.0649 38.8411 83.6117Z" fill="#8A9636"/>
<path d="M48.7868 59.6739L63.2376 34.5332C62.3566 41.6485 65.5078 48.6622 65.44 55.8283C65.44 64.5869 60.5948 72.5154 56.783 80.4099C52.0225 90.2528 46.6184 109.091 46.3642 122.966C39.1812 107.194 40.2823 74.5144 48.7868 59.6739Z" fill="#66741F"/>
<path d="M57.7995 111.26H27.3901C27.0964 111.259 26.8058 111.319 26.5364 111.436C26.2669 111.552 26.0244 111.723 25.8241 111.938C25.6237 112.153 25.4698 112.406 25.372 112.683C25.2741 112.96 25.2345 113.254 25.2555 113.547L32.3538 209.18C32.3967 209.783 32.6672 210.348 33.1106 210.76C33.554 211.172 34.1373 211.401 34.7426 211.399H50.447C51.054 211.401 51.6392 211.173 52.0854 210.762C52.5315 210.35 52.8056 209.785 52.8526 209.18L59.9341 113.547C59.9551 113.254 59.9154 112.96 59.8176 112.683C59.7197 112.406 59.5657 112.153 59.3654 111.938C59.165 111.723 58.9226 111.552 58.6532 111.436C58.3837 111.319 58.0931 111.259 57.7995 111.26Z" fill="#7B6357"/>
<path d="M33.2176 121.323C38.8927 122.226 44.6702 122.283 50.362 121.492C50.6047 121.492 50.8374 121.396 51.0089 121.224C51.1805 121.053 51.2768 120.82 51.2768 120.577C51.2768 120.335 51.1805 120.102 51.0089 119.93C50.8374 119.759 50.6047 119.662 50.362 119.662C44.6703 118.871 38.8926 118.928 33.2176 119.832C33.0579 119.881 32.9179 119.979 32.8186 120.114C32.7192 120.248 32.6655 120.41 32.6655 120.577C32.6655 120.744 32.7192 120.907 32.8186 121.041C32.9179 121.175 33.0579 121.274 33.2176 121.323Z" fill="#6D564D"/>
<path d="M35.1145 133.283C40.3493 133.097 45.8552 133.724 51.0223 132.927C51.2186 132.873 51.3916 132.756 51.515 132.594C51.6383 132.431 51.705 132.233 51.705 132.03C51.705 131.826 51.6383 131.628 51.515 131.466C51.3916 131.303 51.2186 131.186 51.0223 131.132C45.9399 130.335 40.3493 130.962 35.1145 130.776C34.782 130.776 34.4631 130.908 34.228 131.143C33.9929 131.378 33.8608 131.697 33.8608 132.03C33.8608 132.362 33.9929 132.681 34.228 132.916C34.4631 133.151 34.782 133.283 35.1145 133.283Z" fill="#6D564D"/>
<path d="M35.8434 146.836C40.9887 147.809 46.2572 147.946 51.4462 147.243C51.6303 147.19 51.7922 147.079 51.9075 146.926C52.0228 146.774 52.0851 146.587 52.0851 146.396C52.0851 146.204 52.0228 146.018 51.9075 145.865C51.7922 145.713 51.6303 145.601 51.4462 145.549C46.2572 144.845 40.9887 144.983 35.8434 145.955C35.7472 145.982 35.6626 146.04 35.6022 146.119C35.5419 146.199 35.5093 146.296 35.5093 146.396C35.5093 146.496 35.5419 146.593 35.6022 146.672C35.6626 146.752 35.7472 146.809 35.8434 146.836Z" fill="#6D564D"/>
<path d="M35.9623 159.694L41.6714 160.067C43.3524 160.366 45.0729 160.366 46.7538 160.067C46.9492 160.002 47.119 159.877 47.2394 159.709C47.3597 159.542 47.4245 159.341 47.4245 159.135C47.4245 158.929 47.3597 158.729 47.2394 158.561C47.119 158.394 46.9492 158.269 46.7538 158.204C45.0729 157.905 43.3524 157.905 41.6714 158.204L35.9623 158.576C35.8095 158.576 35.663 158.637 35.555 158.745C35.447 158.853 35.3862 159 35.3862 159.152C35.3862 159.305 35.447 159.452 35.555 159.56C35.663 159.668 35.8095 159.728 35.9623 159.728V159.694Z" fill="#6D564D"/>
<path d="M37.6562 173.942C41.5001 174.613 45.4223 174.71 49.2948 174.23C49.4545 174.181 49.5944 174.083 49.6938 173.949C49.7932 173.814 49.8468 173.652 49.8468 173.485C49.8468 173.318 49.7932 173.155 49.6938 173.021C49.5944 172.887 49.4545 172.788 49.2948 172.739C45.4223 172.259 41.5001 172.356 37.6562 173.027C37.5349 173.027 37.4185 173.076 37.3327 173.161C37.247 173.247 37.1987 173.363 37.1987 173.485C37.1987 173.606 37.247 173.722 37.3327 173.808C37.4185 173.894 37.5349 173.942 37.6562 173.942Z" fill="#6D564D"/>
<path d="M37.9263 188.071C39.788 188.45 41.6852 188.626 43.5847 188.596C45.499 188.852 47.4435 188.766 49.3278 188.342C49.5119 188.29 49.6738 188.179 49.789 188.026C49.9043 187.873 49.9667 187.687 49.9667 187.495C49.9667 187.304 49.9043 187.118 49.789 186.965C49.6738 186.812 49.5119 186.701 49.3278 186.648C47.4435 186.225 45.499 186.139 43.5847 186.394C41.6852 186.365 39.788 186.541 37.9263 186.919C37.7973 186.951 37.6827 187.025 37.6007 187.129C37.5187 187.234 37.4741 187.362 37.4741 187.495C37.4741 187.628 37.5187 187.757 37.6007 187.861C37.6827 187.966 37.7973 188.04 37.9263 188.071Z" fill="#6D564D"/>
<path d="M32.2848 21.3358C32.641 20.4278 32.8745 19.4764 32.9793 18.5066C33.1318 16.2365 31.5902 13.5937 33.0979 11.8996C33.6965 11.3894 34.3369 10.9304 35.0123 10.5274C36.7064 9.08736 36.7064 6.42758 36.9606 4.15746C37.2147 1.88734 39.2136 -0.704668 41.3144 0.176273C44.4315 1.78569 40.9078 6.86804 42.009 12.0351C42.1784 12.8313 43.7031 14.0342 44.008 14.7965C45.3633 18.8285 41.6193 19.7433 42.7205 22.9283C46.5492 33.9061 28.9813 31.0093 32.2848 21.3358Z" fill="#E29D36"/>
<path d="M38.5019 201.98C40.7932 202.456 43.1511 202.519 45.4647 202.166C45.6123 202.12 45.7413 202.027 45.8328 201.902C45.9243 201.777 45.9736 201.627 45.9736 201.472C45.9736 201.317 45.9243 201.166 45.8328 201.041C45.7413 200.916 45.6123 200.824 45.4647 200.777C43.1511 200.425 40.7932 200.488 38.5019 200.964C38.3671 200.964 38.2378 201.017 38.1424 201.112C38.0471 201.208 37.9937 201.337 37.9937 201.472C37.9937 201.607 38.0471 201.736 38.1424 201.831C38.2378 201.927 38.3671 201.98 38.5019 201.98Z" fill="#6D564D"/>
</g>
<defs>
<clipPath id="clip0_2401_162">
<rect width="66.54" height="218.55" fill="white"/>
</clipPath>
</defs>
</svg>
